<?xml version="1.0" standalone="no"?>
<!DOCTYPE svg PUBLIC "-//W3C//DTD SVG 20010904//EN"
 "http://www.w3.org/TR/2001/REC-SVG-20010904/DTD/svg10.dtd">
<svg version="1.0" xmlns="http://www.w3.org/2000/svg"
 width="500.000000pt" height="500.000000pt" viewBox="0 0 500.000000 500.000000"
 preserveAspectRatio="xMidYMid meet">

<g transform="translate(0.000000,500.000000) scale(0.100000,-0.100000)"
fill="#000000" stroke="none">
<path d="M1954 2676 c-27 -31 -57 -56 -66 -56 -9 0 -20 -4 -23 -10 -3 -5 1
-10 9 -10 20 0 20 -3 -4 -42 -22 -36 -26 -58 -10 -58 5 0 17 17 25 37 21 50
33 62 55 56 14 -4 18 -11 14 -27 -2 -11 1 -29 9 -40 11 -15 17 -17 35 -7 12 6
22 17 22 23 0 9 -3 9 -12 0 -34 -34 -37 16 -8 109 10 35 16 67 11 72 -5 5 -30
-17 -57 -47z m16 -30 c-6 -20 -18 -36 -26 -36 -19 0 -18 4 8 44 28 42 34 39
18 -8z"/>
<path d="M2523 2711 c-93 -58 -97 -239 -5 -216 34 8 72 32 72 46 0 6 -12 1
-26 -10 -48 -38 -84 -22 -84 38 0 46 37 120 66 133 33 15 41 3 20 -32 -15 -26
-15 -30 -2 -30 20 0 38 35 34 63 -4 29 -35 32 -75 8z"/>
<path d="M2805 2713 c-10 -10 -31 -47 -47 -83 -41 -92 -43 -95 -62 -98 -13 -3
-14 1 -6 23 21 56 2 63 -29 9 -24 -40 -46 -38 -30 3 13 34 3 42 -21 15 -16
-17 -18 -26 -10 -47 10 -25 34 -33 45 -15 4 6 13 5 25 -3 16 -9 23 -9 37 5 15
16 17 16 29 0 10 -14 16 -14 38 -4 15 7 26 8 26 2 0 -13 57 -13 65 0 4 6 13 5
25 -2 15 -10 22 -10 31 -1 9 9 16 9 31 0 16 -10 23 -8 46 19 15 17 33 39 40
50 11 16 11 13 6 -23 -6 -48 9 -63 45 -44 13 7 22 8 26 1 8 -13 51 -13 75 0
11 6 25 20 31 32 11 20 9 19 -20 -5 -18 -15 -39 -27 -47 -27 -24 0 -14 24 19
45 39 25 42 49 5 53 -22 3 -32 -5 -58 -42 -36 -53 -55 -60 -45 -17 4 17 2 32
-5 36 -6 4 -15 17 -20 29 -8 21 -8 21 -14 1 -16 -48 -42 -90 -59 -93 -15 -3
-16 0 -7 23 21 56 2 63 -29 9 -24 -40 -46 -38 -30 3 14 38 -5 51 -20 14 -29
-68 -78 -78 -65 -13 6 27 11 32 38 33 23 1 25 3 9 6 -26 5 -29 20 -8 47 17 23
19 36 5 36 -14 0 -56 -70 -64 -107 -8 -36 -32 -61 -46 -47 -9 9 -1 29 32 75
46 64 56 146 13 102z m-5 -63 c-11 -22 -23 -40 -25 -40 -3 0 4 18 15 40 11 22
23 40 25 40 3 0 -4 -18 -15 -40z m390 -49 c0 -12 -42 -42 -49 -36 -5 6 29 45
41 45 4 0 8 -4 8 -9z"/>
<path d="M2177 2634 c-4 -4 -7 -17 -7 -28 0 -12 -11 -34 -25 -51 l-24 -30 6
48 c5 40 3 47 -11 47 -22 0 -52 -16 -77 -41 -27 -27 -9 -63 27 -56 32 6 30 -1
-8 -33 -19 -16 -28 -31 -24 -38 13 -22 36 -12 61 27 13 22 31 43 38 48 8 4 24
23 35 41 22 38 39 28 20 -13 -16 -36 1 -53 39 -36 19 9 29 9 31 2 5 -16 38
-13 52 4 7 8 20 15 30 15 10 0 24 8 31 18 11 14 11 15 -1 5 -23 -21 -29 -15
-23 22 5 31 3 35 -16 35 -12 0 -24 -7 -27 -15 -4 -8 -12 -15 -18 -15 -7 0 -22
-13 -34 -30 -29 -39 -43 -38 -35 2 4 22 2 34 -9 42 -8 6 -17 17 -19 24 -2 7
-8 10 -12 6z m-68 -46 c-17 -34 -41 -58 -50 -52 -11 6 16 60 33 67 25 10 29 7
17 -15z m231 10 c0 -7 -5 -20 -10 -28 -8 -12 -10 -9 -10 13 0 15 5 27 10 27 6
0 10 -6 10 -12z m-35 -58 c-3 -6 -10 -10 -16 -10 -10 0 -12 33 -2 44 9 9 26
-22 18 -34z m-235 -65 c-7 -8 -18 -15 -24 -15 -6 0 -2 7 8 15 25 19 32 19 16
0z"/>
</g>
</svg>
