<?xml version="1.0" encoding="iso-8859-1"?>
<!-- Generator: Adobe Illustrator 19.0.0, SVG Export Plug-In . SVG Version: 6.00 Build 0)  -->
<svg version="1.1" id="Capa_1" xmlns="http://www.w3.org/2000/svg" xmlns:xlink="http://www.w3.org/1999/xlink" x="0px" y="0px"
	 viewBox="0 0 512 512" style="enable-background:new 0 0 512 512;" xml:space="preserve">
<linearGradient id="SVGID_1_" gradientUnits="userSpaceOnUse" x1="256.0852" y1="513.9617" x2="256.0852" y2="1.8197" gradientTransform="matrix(0.9997 0 0 -0.9997 -0.0137 513.8187)">
	<stop  offset="0" style="stop-color:#2AF598"/>
	<stop  offset="1" style="stop-color:#009EFD"/>
</linearGradient>
<path style="fill:url(#SVGID_1_);" d="M442.311,69.689C397.37,24.75,337.621,0.001,274.066,0.001S150.762,24.75,105.821,69.689
	c-44.94,44.94-69.689,104.691-69.689,168.245c0,56.841,19.811,110.63,56.144,153.512L0,483.722l28.277,28.277l92.276-92.276
	c42.882,36.333,96.671,56.144,153.513,56.144c63.554,0,123.305-24.749,168.245-69.689C487.251,361.239,512,301.488,512,237.934
	S487.251,114.63,442.311,69.689z M274.066,435.879c-109.148,0-197.945-88.797-197.945-197.945S164.919,39.989,274.066,39.989
	s197.945,88.797,197.945,197.945S383.213,435.879,274.066,435.879z M354.044,146.959h-21.462
	c-7.348-24.821-30.345-42.988-57.516-42.988c-26.808,0-49.56,17.679-57.222,41.988h-20.756v-33.991h-39.989v73.979h57.984v29.992
	h-57.984v39.989h57.984v28.992h-57.984V358.9h39.989V324.91h21.095c7.966,23.79,30.447,40.989,56.883,40.989
	s48.917-17.198,56.883-40.989h22.095V358.9h39.989v-73.979h-58.984v-27.992h58.984V216.94h-58.984v-29.992h58.984v-73.979h-39.989
	V146.959z M295.061,305.915c0,11.025-8.969,19.994-19.994,19.994s-19.994-8.969-19.994-19.994v-141.96
	c0-11.025,8.969-19.994,19.994-19.994s19.994,8.969,19.994,19.994V305.915z"/>
<g>
</g>
<g>
</g>
<g>
</g>
<g>
</g>
<g>
</g>
<g>
</g>
<g>
</g>
<g>
</g>
<g>
</g>
<g>
</g>
<g>
</g>
<g>
</g>
<g>
</g>
<g>
</g>
<g>
</g>
</svg>
